<?xml version="1.0" encoding="utf-8"?>
<!-- Generator: Adobe Illustrator 14.0.0, SVG Export Plug-In . SVG Version: 6.00 Build 43363)  -->
<!DOCTYPE svg PUBLIC "-//W3C//DTD SVG 1.1//EN" "http://www.w3.org/Graphics/SVG/1.1/DTD/svg11.dtd">
<svg version="1.1" id="Layer_1" xmlns="http://www.w3.org/2000/svg" xmlns:xlink="http://www.w3.org/1999/xlink" x="0px" y="0px"
	 width="575.3px" height="297.015px" viewBox="622.8 875.52 575.3 297.015" enable-background="new 622.8 875.52 575.3 297.015"
	 xml:space="preserve">
<g id="Layer_6">
	<g id="B11_1_">
		<polygon id="B11" fill="none" stroke="#000000" stroke-width="1.5348" stroke-dasharray="3.0695,3.0695,6.139,3.0695" points="
			768.761,1015.75 768.761,1007.461 788.712,1007.461 788.712,989.352 808.357,989.352 808.357,978.915 928.99,978.915 
			928.99,954.666 909.038,954.666 909.038,919.673 928.99,919.673 928.99,900.335 948.635,900.335 948.635,891.434 969.507,891.434 
			969.507,882.532 1073.257,882.532 1073.257,892.048 1093.209,892.048 1093.209,918.446 1112.547,918.446 1112.547,954.666 
			1132.806,954.666 1132.806,981.371 1153.064,981.371 1153.064,1018.205 1171.481,1018.205 1171.481,1055.039 1192.047,1055.039 
			1192.047,1080.823 1173.323,1080.823 1173.323,1098.933 1048.701,1098.933 1048.701,1081.13 1027.828,1081.13 1027.828,1053.812 
			988.845,1053.812 988.845,1036.622 968.586,1036.622 968.586,1024.344 811.734,1024.344 811.734,1015.75 		"/>
		<rect id="IS11" x="1024.452" y="946.992" fill="#7A7A7A" width="12.892" height="4.604"/>
	</g>
	<g id="B12_1_">
		<polygon id="B12" fill="none" stroke="#000000" stroke-width="1.5348" stroke-dasharray="3.0695,3.0695,6.139,3.0695" points="
			629.098,1106.607 648.743,1106.607 648.743,1087.576 669.615,1087.576 669.615,1069.159 708.598,1069.159 708.598,1043.375 
			729.778,1043.375 729.778,1034.167 748.502,1034.167 748.502,1024.344 768.761,1024.344 768.761,1015.749 811.735,1015.749 
			811.735,1024.344 893.383,1024.344 893.383,1034.167 912.414,1034.167 912.414,1051.356 933.287,1051.356 933.287,1087.576 
			913.335,1087.576 913.335,1105.993 893.997,1105.993 893.997,1115.509 873.125,1115.509 873.125,1133.312 853.479,1133.312 
			853.479,1150.501 835.369,1150.501 835.369,1160.631 813.883,1160.631 813.883,1169.532 709.826,1169.532 709.826,1160.324 
			650.277,1160.324 650.277,1151.729 629.098,1151.729 		"/>
		<rect id="IS12" x="784.722" y="1071.153" fill="#7A7A7A" width="12.892" height="4.604"/>
	</g>
</g>
</svg>
